<?xml version="1.0" encoding="UTF-8" standalone="no"?>
<!-- Created with Inkscape (http://www.inkscape.org/) -->

<svg
   xmlns:dc="http://purl.org/dc/elements/1.1/"
   xmlns:cc="http://creativecommons.org/ns#"
   xmlns:rdf="http://www.w3.org/1999/02/22-rdf-syntax-ns#"
   xmlns:svg="http://www.w3.org/2000/svg"
   xmlns="http://www.w3.org/2000/svg"
   xmlns:xlink="http://www.w3.org/1999/xlink"
   xmlns:sodipodi="http://sodipodi.sourceforge.net/DTD/sodipodi-0.dtd"
   xmlns:inkscape="http://www.inkscape.org/namespaces/inkscape"
   width="1000"
   height="343.28189"
   id="svg4472"
   version="1.1"
   inkscape:version="0.48.2 r9819"
   sodipodi:docname="Google_2014.svg">
  <defs
     id="defs4474">
    <linearGradient
       id="linearGradient4561">
      <stop
         style="stop-color:#de5644;stop-opacity:1"
         offset="0"
         id="stop4563" />
      <stop
         id="stop4569"
         offset="0.5"
         style="stop-color:#da4531;stop-opacity:1" />
      <stop
         style="stop-color:#ce3a28;stop-opacity:1"
         offset="1"
         id="stop4565" />
    </linearGradient>
    <linearGradient
       id="linearGradient4551">
      <stop
         style="stop-color:#0aa561;stop-opacity:1"
         offset="0"
         id="stop4553" />
      <stop
         id="stop4559"
         offset="0.5"
         style="stop-color:#009b58;stop-opacity:1" />
      <stop
         style="stop-color:#00914b;stop-opacity:1"
         offset="1"
         id="stop4555" />
    </linearGradient>
    <linearGradient
       id="linearGradient4535">
      <stop
         style="stop-color:#1a6fef;stop-opacity:1"
         offset="0"
         id="stop4537" />
      <stop
         id="stop4547"
         offset="0.25"
         style="stop-color:#1e72ef;stop-opacity:1" />
      <stop
         id="stop4545"
         offset="0.5"
         style="stop-color:#166bec;stop-opacity:1" />
      <stop
         id="stop4543"
         offset="0.75"
         style="stop-color:#1267e9;stop-opacity:1" />
      <stop
         style="stop-color:#1063e5;stop-opacity:0.87450981"
         offset="1"
         id="stop4539" />
    </linearGradient>
    <linearGradient
       id="linearGradient4525">
      <stop
         style="stop-color:#ffc01a;stop-opacity:1"
         offset="0"
         id="stop4527" />
      <stop
         id="stop4533"
         offset="0.5"
         style="stop-color:#ffba03;stop-opacity:1" />
      <stop
         style="stop-color:#ffb300;stop-opacity:1"
         offset="1"
         id="stop4529" />
    </linearGradient>
    <linearGradient
       id="linearGradient4511">
      <stop
         style="stop-color:#de5744;stop-opacity:1"
         offset="0"
         id="stop4513" />
      <stop
         id="stop4523"
         offset="0.5"
         style="stop-color:#db4632;stop-opacity:1" />
      <stop
         style="stop-color:#d13d29;stop-opacity:1"
         offset="1"
         id="stop4515" />
    </linearGradient>
    <linearGradient
       id="linearGradient4501">
      <stop
         style="stop-color:#196eef;stop-opacity:1"
         offset="0"
         id="stop4503" />
      <stop
         id="stop4509"
         offset="0.5"
         style="stop-color:#186dee;stop-opacity:1" />
      <stop
         style="stop-color:#1065e7;stop-opacity:1"
         offset="1"
         id="stop4505" />
    </linearGradient>
    <linearGradient
       inkscape:collect="always"
       xlink:href="#linearGradient4501"
       id="linearGradient4507"
       x1="-4561.0913"
       y1="2932.0034"
       x2="-4561.0913"
       y2="3070.1477"
       gradientUnits="userSpaceOnUse"
       gradientTransform="matrix(1.8017479,0,0,1.8017479,3716.8332,-2503.325)" />
    <linearGradient
       inkscape:collect="always"
       xlink:href="#linearGradient4511"
       id="linearGradient4517"
       x1="-4444.6431"
       y1="2978.9692"
       x2="-4444.6431"
       y2="3068.3008"
       gradientUnits="userSpaceOnUse"
       gradientTransform="matrix(1.8017479,0,0,1.8017479,3716.8332,-2503.325)" />
    <linearGradient
       inkscape:collect="always"
       xlink:href="#linearGradient4525"
       id="linearGradient4531"
       x1="-4342.5"
       y1="2979.1479"
       x2="-4342.5"
       y2="3068.1067"
       gradientUnits="userSpaceOnUse"
       gradientTransform="matrix(1.8017479,0,0,1.8017479,3716.8332,-2503.325)" />
    <linearGradient
       inkscape:collect="always"
       xlink:href="#linearGradient4535"
       id="linearGradient4541"
       x1="-4248.9287"
       y1="2978.9692"
       x2="-4248.9287"
       y2="3122.3982"
       gradientUnits="userSpaceOnUse"
       gradientTransform="matrix(1.8017479,0,0,1.8017479,3718.2618,-2503.325)" />
    <linearGradient
       inkscape:collect="always"
       xlink:href="#linearGradient4551"
       id="linearGradient4557"
       x1="-4184.2856"
       y1="2934.5051"
       x2="-4184.2856"
       y2="3065.79"
       gradientUnits="userSpaceOnUse"
       gradientTransform="matrix(1.8017479,0,0,1.8017479,3717.9046,-2502.2536)" />
    <linearGradient
       inkscape:collect="always"
       xlink:href="#linearGradient4561"
       id="linearGradient4567"
       x1="-4118.3931"
       y1="2978.9692"
       x2="-4118.3931"
       y2="3068.1067"
       gradientUnits="userSpaceOnUse"
       gradientTransform="matrix(1.8017479,0,0,1.8017479,3716.8332,-2503.325)" />
  </defs>
  <sodipodi:namedview
     id="base"
     pagecolor="#ffffff"
     bordercolor="#666666"
     borderopacity="1.0"
     inkscape:pageopacity="0.0"
     inkscape:pageshadow="2"
     inkscape:zoom="0.40458385"
     inkscape:cx="718.60953"
     inkscape:cy="43.783854"
     inkscape:document-units="px"
     inkscape:current-layer="layer1"
     showgrid="false"
     fit-margin-left="0.5"
     fit-margin-top="0.5"
     fit-margin-bottom="0.5"
     fit-margin-right="0.5"
     inkscape:window-width="1126"
     inkscape:window-height="1036"
     inkscape:window-x="788"
     inkscape:window-y="-21"
     inkscape:window-maximized="0">
    <inkscape:grid
       type="xygrid"
       id="grid4499"
       empspacing="5"
       visible="true"
       enabled="true"
       snapvisiblegridlinesonly="true" />
  </sodipodi:namedview>
  <metadata
     id="metadata4477">
    <rdf:RDF>
      <cc:Work
         rdf:about="">
        <dc:format>image/svg+xml</dc:format>
        <dc:type
           rdf:resource="http://purl.org/dc/dcmitype/StillImage" />
        <dc:title />
      </cc:Work>
    </rdf:RDF>
  </metadata>
  <g
     inkscape:label="Layer 1"
     inkscape:groupmode="layer"
     id="layer1"
     transform="translate(4636.4128,-2779.5525)">
    <path
       style="fill:url(#linearGradient4507);fill-opacity:1;stroke:none"
       d="m -4481.4214,2946.3792 42.9567,0 0,60.3392 c -13.4056,4.3109 -30.3301,6.6647 -47.9214,6.6647 -71.3033,0 -113.2163,-61.0634 -113.2163,-120.6999 0,-58.4825 37.9088,-99.5069 90.7836,-99.5069 33.4693,0 52.9341,11.3333 70.3541,27.1299 l 0,19.6803 32.6669,-32.6672 c -20.6584,-13.9781 -50.5759,-27.2668 -93.3392,-27.2668 -93.8679,0 -136.7758,67.1565 -136.7758,122.3449 0,78.564 57.2198,125.8815 129.1276,125.8815 34.8634,0 65.8165,-5.3247 101.587,-15.2668 l 0,-62.3372 c 0,-3.1823 1.4,-5.3785 3.4963,-7.2926 l 11.2887,-11.2887 -76.6227,0 z"
       id="path4423"
       inkscape:connector-curvature="0"
       sodipodi:nodetypes="cccccccccccccccccc" />
    <path
       inkscape:connector-curvature="0"
       style="fill:url(#linearGradient4517);fill-opacity:1;stroke:none"
       d="m -4288.9717,2864.3818 c -54.0254,0 -87.5055,39.4824 -87.5055,81.3837 0,36.1727 26.9688,79.1172 81.6178,79.1172 52.5597,0 84.8115,-39.5615 84.8115,-82.2048 0,-39.7239 -31.5156,-78.2961 -78.9238,-78.2961 z m -8.9565,11.5102 c 38.0881,0 55.0632,49.6334 55.0632,85.0332 0,52.6393 -39.4921,53.6803 -44.2115,53.6803 -18.0758,0 -30.7059,-10.9211 -40.1565,-25.2496 -8.3288,-13.2065 -16.4584,-37.7311 -16.4584,-61.7034 0,-23.8748 7.8114,-35.5281 20.1172,-44.1088 10.0618,-6.4229 19.4781,-7.6517 25.646,-7.6517 z"
       id="path4425" />
    <path
       inkscape:connector-curvature="0"
       style="fill:url(#linearGradient4541);fill-opacity:1;stroke:none"
       d="m -3934.3425,2864.363 c -47.1897,0 -72.7111,29.882 -72.7111,63.2363 0,25.4011 18.1991,54.0456 55.7283,54.0456 l 9.4902,0 c 0,0 -2.5828,6.276 -2.6005,12.3564 0,8.9437 3.2185,13.9727 10.0494,21.7093 -64.575,3.9391 -90.5433,29.9834 -90.5433,57.9761 0,24.5099 23.4768,48.6477 72.8079,48.6477 58.4087,0 88.6545,-32.4306 88.6545,-64.2476 0,-22.4312 -11.174,-34.73 -39.4821,-55.9406 -8.3272,-6.473 -9.9368,-10.5898 -9.9368,-15.4376 0,-6.9386 4.1472,-11.5258 5.6662,-13.2553 2.6785,-2.8282 7.3208,-6.0577 9.0534,-7.6048 9.504,-8.0589 22.9423,-19.9855 22.9423,-43.7717 0,-16.3244 -6.7837,-30.3663 -22.2555,-43.5279 l 18.8808,0 14.1858,-14.1859 -69.9295,0 z m -13.0151,10.6206 c 8.5599,0 15.7064,3.033 23.2579,9.3031 8.3776,7.5471 21.7499,27.8306 21.7499,52.9405 0,27.0854 -21.0434,34.5027 -32.4331,34.5027 -5.5714,0 -12.2591,-1.556 -17.9161,-5.4225 -12.5674,-8.148 -25.0311,-29.8337 -25.0311,-55.6442 0,-23.2867 13.8715,-35.6796 30.3725,-35.6796 z m 18.6813,151.0135 c 3.5992,0 6.1874,0.2935 6.1874,0.2935 0,0 8.4938,6.0706 14.4323,10.5986 13.8142,10.9289 22.4399,19.2733 22.4399,34.1469 0,20.4433 -18.9634,36.479 -49.6874,36.479 -33.7197,0 -59.4901,-15.6953 -59.4901,-41.3304 0,-21.234 17.6527,-39.5125 66.1179,-40.1876 z"
       id="path4429" />
    <path
       style="fill:url(#linearGradient4557);fill-opacity:1;stroke:none"
       d="m -3854.5336,3021.2763 64.7878,0 9.8651,-9.8652 -18.577,-2.3248 c -4.9971,-0.6126 -7.9712,-4.9303 -7.9712,-9.1186 l 0,-195.6729 c 0,-3.8524 1.7853,-5.8294 3.0968,-7.0876 l 11.6882,-11.6883 -55.2443,0 -14.3803,14.3804 21.4732,0 0,202.6957 c 0,2.8864 -0.9005,4.8376 -2.858,6.8513 z"
       id="path4433"
       inkscape:connector-curvature="0"
       sodipodi:nodetypes="cccccccccccccc" />
    <path
       inkscape:connector-curvature="0"
       style="fill:url(#linearGradient4567);fill-opacity:1;stroke:none"
       d="m -3703.0525,2864.3757 c -36.1696,0 -74.5966,27.5726 -74.5966,77.0661 0,40.8816 27.5677,83.4409 79.0827,83.4409 12.849,0 23.4175,-1.6532 33.3291,-6.2062 10.625,-4.8911 20.8625,-12.8426 28.3245,-22.8395 -14.099,7.108 -25.5929,11.7787 -40.8714,11.7787 -29.0278,0 -57.0035,-20.9358 -66.8015,-59.4277 l 102.5217,-41.4426 c -5.9256,-21.1169 -22.6221,-42.3697 -60.9885,-42.3697 z m -6.6933,11.3259 c 19.4046,0 33.4351,15.9664 33.4351,28.4684 0,4.0459 -2.5384,6.1731 -7.5486,8.1447 l -63.0241,25.4901 c 0,0 -1.7013,-7.9296 -1.7013,-16.5177 0,-35.9683 26.0069,-45.5855 38.8389,-45.5855 z"
       id="path4435" />
    <path
       inkscape:connector-curvature="0"
       style="fill:url(#linearGradient4531);fill-opacity:1;stroke:none"
       d="m -4105.6251,2864.3818 c -54.0253,0 -87.5088,39.4824 -87.5088,81.3837 0,36.1727 26.9688,79.1172 81.6181,79.1172 52.5594,0 84.8112,-39.5615 84.8112,-82.2048 0,-39.7239 -31.5125,-78.2961 -78.9205,-78.2961 z m -8.9598,11.5102 c 38.0881,0 55.0635,49.6334 55.0635,85.0332 0,52.6393 -39.4893,53.6803 -44.2086,53.6803 -18.0757,0 -30.7088,-10.9211 -40.1597,-25.2496 -8.3288,-13.2065 -16.4583,-37.7311 -16.4583,-61.7034 0,-23.8748 7.8114,-35.5281 20.1173,-44.1088 10.0619,-6.4229 19.4782,-7.6517 25.6458,-7.6517 z"
       id="path4439" />
    <g
       transform="matrix(1.5307901,0,0,1.5307901,-4859.1981,2533.7067)"
       style="font-size:40px;font-style:normal;font-weight:normal;line-height:125%;letter-spacing:0px;word-spacing:0px;fill:#1370e5;fill-opacity:1;stroke:none;font-family:Sans"
       id="flowRoot3032">
      <path
         d="m 386.79687,363.17294 0,-27.8122 5.78125,0 0,27.8122 z"
         style="font-variant:normal;font-weight:bold;font-stretch:normal;font-family:Arial;-inkscape-font-specification:Arial Bold;fill:#1370e5;fill-opacity:1"
         id="path3041"
         inkscape:connector-curvature="0"
         sodipodi:nodetypes="ccccc" />
      <path
         d="m 396.90361,342.43075 5.05859,0 0,2.83203 c 1.80989,-2.2005 3.96483,-3.30076 6.46484,-3.30078 1.32811,2e-5 2.48046,0.27346 3.45704,0.82031 0.97654,0.5469 1.77732,1.37372 2.40234,2.48047 0.91144,-1.10675 1.89451,-1.93357 2.94922,-2.48047 1.05466,-0.54685 2.18096,-0.82029 3.3789,-0.82031 1.52341,2e-5 2.81248,0.30927 3.86719,0.92774 1.05466,0.61851 1.84242,1.52671 2.36328,2.72461 0.37758,0.88543 0.56638,2.31772 0.56641,4.29687 l 0,13.26172 -5.48828,0 0,-11.85547 c -3e-5,-2.05728 -0.18883,-3.3854 -0.56641,-3.98437 -0.50784,-0.78124 -1.28909,-1.17186 -2.34375,-1.17188 -0.76825,2e-5 -1.49091,0.23439 -2.16797,0.70313 -0.6771,0.46876 -1.16538,1.15561 -1.46484,2.06054 -0.2995,0.90496 -0.44924,2.334 -0.44922,4.28711 l 0,9.96094 -5.48828,0 0,-11.36719 c -2e-5,-2.01821 -0.0977,-3.3203 -0.29297,-3.90625 -0.19533,-0.58592 -0.49806,-1.02212 -0.9082,-1.30859 -0.41017,-0.28644 -0.96681,-0.42967 -1.66992,-0.42969 -0.84637,2e-5 -1.60809,0.22788 -2.28516,0.68359 -0.67709,0.45575 -1.16212,1.1133 -1.45508,1.97266 -0.29297,0.85939 -0.43946,2.28517 -0.43945,4.27734 l 0,10.07813 -5.48828,0 z"
         style="font-variant:normal;font-weight:bold;font-stretch:normal;font-family:Arial;-inkscape-font-specification:Arial Bold;fill:#1370e5;fill-opacity:1"
         id="path3043"
         inkscape:connector-curvature="0" />
      <path
         d="m 436.67677,348.75888 -4.98047,-0.89844 c 0.5599,-2.00519 1.52344,-3.48957 2.89063,-4.45313 1.36718,-0.96352 3.39843,-1.44529 6.09375,-1.44531 2.4479,2e-5 4.27082,0.28974 5.46875,0.86914 1.1979,0.57945 2.04099,1.31513 2.52929,2.20703 0.48827,0.89195 0.73241,2.52932 0.73243,4.91211 l -0.0586,6.40625 c -2e-5,1.82292 0.0879,3.16732 0.26367,4.03321 0.17577,0.86588 0.50454,1.79362 0.98633,2.7832 l -5.42969,0 c -0.14324,-0.36458 -0.31902,-0.90495 -0.52734,-1.62109 -0.0912,-0.32552 -0.15626,-0.54037 -0.19531,-0.64454 -0.93752,0.91146 -1.94012,1.59506 -3.00781,2.05079 -1.06772,0.45572 -2.20704,0.68359 -3.41797,0.68359 -2.13543,0 -3.81837,-0.57943 -5.04883,-1.73828 -1.23047,-1.15885 -1.84571,-2.6237 -1.8457,-4.39453 -1e-5,-1.17187 0.27994,-2.21679 0.83984,-3.13477 0.55989,-0.91796 1.3444,-1.62108 2.35352,-2.10937 1.0091,-0.48827 2.46418,-0.91471 4.36523,-1.2793 2.56509,-0.48176 4.34243,-0.93098 5.33203,-1.34766 l 0,-0.54687 c -10e-6,-1.05467 -0.26043,-1.80663 -0.78125,-2.25586 -0.52085,-0.4492 -1.50392,-0.67381 -2.94922,-0.67383 -0.97657,2e-5 -1.73829,0.19207 -2.28515,0.57617 -0.54689,0.38413 -0.98959,1.05796 -1.32813,2.02149 z m 7.34375,4.45312 c -0.70314,0.23439 -1.81642,0.51433 -3.33984,0.83985 -1.52345,0.32552 -2.51954,0.64454 -2.98828,0.95703 -0.71616,0.50782 -1.07423,1.15235 -1.07422,1.93359 -10e-6,0.76823 0.28645,1.4323 0.85937,1.99219 0.57291,0.5599 1.30208,0.83984 2.1875,0.83984 0.98957,0 1.93358,-0.32552 2.83203,-0.97656 0.66405,-0.49479 1.10025,-1.10026 1.3086,-1.81641 0.14321,-0.46874 0.21483,-1.36067 0.21484,-2.67578 z"
         style="font-variant:normal;font-weight:bold;font-stretch:normal;font-family:Arial;-inkscape-font-specification:Arial Bold;fill:#1370e5;fill-opacity:1"
         id="path3045"
         inkscape:connector-curvature="0" />
      <path
         d="m 453.47673,364.54013 6.26953,0.76172 c 0.10416,0.72916 0.34505,1.23046 0.72266,1.5039 0.52082,0.39062 1.34113,0.58593 2.46094,0.58594 1.43227,-10e-6 2.50649,-0.21485 3.22265,-0.64453 0.48176,-0.28646 0.84634,-0.7487 1.09375,-1.38672 0.16926,-0.45573 0.25389,-1.29557 0.25391,-2.51953 l 0,-3.02735 c -1.64064,2.23959 -3.71095,3.35938 -6.21094,3.35938 -2.78646,0 -4.99349,-1.17839 -6.62109,-3.53516 -1.27605,-1.86197 -1.91407,-4.17968 -1.91407,-6.95312 0,-3.47655 0.83659,-6.1328 2.50977,-7.96875 1.67317,-1.83592 3.75325,-2.75389 6.24023,-2.75391 2.5651,2e-5 4.68098,1.12632 6.34766,3.37891 l 0,-2.91016 5.13672,0 0,18.61328 c -2e-5,2.44792 -0.20184,4.27734 -0.60547,5.48828 -0.40367,1.21094 -0.97007,2.16146 -1.69922,2.85157 -0.72918,0.69009 -1.70249,1.23046 -2.91992,1.62109 -1.21746,0.39062 -2.75717,0.58593 -4.61914,0.58594 -3.51563,-1e-5 -6.00912,-0.60222 -7.48047,-1.80664 -1.47136,-1.20444 -2.20703,-2.73113 -2.20703,-4.58008 0,-0.18229 0.007,-0.40365 0.0195,-0.66406 z m 4.90234,-12.16797 c 0,2.20053 0.42643,3.81185 1.2793,4.83398 0.85286,1.02214 1.90429,1.53321 3.1543,1.53321 1.34113,0 2.47394,-0.52409 3.39844,-1.57227 0.92446,-1.04817 1.3867,-2.6009 1.38671,-4.6582 -1e-5,-2.14843 -0.44272,-3.74348 -1.32812,-4.78516 -0.88543,-1.04165 -2.00522,-1.56248 -3.35938,-1.5625 -1.31511,2e-5 -2.39909,0.51108 -3.25195,1.5332 -0.85287,1.02215 -1.2793,2.5814 -1.2793,4.67774 z"
         style="font-variant:normal;font-weight:bold;font-stretch:normal;font-family:Arial;-inkscape-font-specification:Arial Bold;fill:#1370e5;fill-opacity:1"
         id="path3047"
         inkscape:connector-curvature="0" />
      <path
         d="m 490.02124,356.57138 5.46875,0.91797 c -0.70315,2.00521 -1.81317,3.5319 -3.33008,4.58007 -1.51694,1.04818 -3.41473,1.57227 -5.69336,1.57227 -3.60678,0 -6.27605,-1.17839 -8.00781,-3.53516 -1.36719,-1.88801 -2.05079,-4.27082 -2.05078,-7.14843 -10e-6,-3.43749 0.89843,-6.12955 2.69531,-8.07618 1.79687,-1.94659 4.069,-2.9199 6.8164,-2.91992 3.08593,2e-5 5.52082,1.0189 7.30469,3.05664 1.78384,2.03778 2.6367,5.15952 2.5586,9.36524 l -13.75,0 c 0.039,1.62761 0.48176,2.89388 1.32812,3.79882 0.84635,0.90496 1.90103,1.35743 3.16406,1.35743 0.85937,0 1.58202,-0.23437 2.16797,-0.70313 0.58593,-0.46874 1.02863,-1.22395 1.32813,-2.26562 z m 0.3125,-5.54688 c -0.0391,-1.58853 -0.44924,-2.79621 -1.23047,-3.62305 -0.78126,-0.8268 -1.73178,-1.24021 -2.85156,-1.24023 -1.19793,2e-5 -2.18751,0.43621 -2.96875,1.30859 -0.78126,0.87241 -1.16538,2.05731 -1.15235,3.55469 z"
         style="font-variant:normal;font-weight:bold;font-stretch:normal;font-family:Arial;-inkscape-font-specification:Arial Bold;fill:#1370e5;fill-opacity:1"
         id="path3049"
         inkscape:connector-curvature="0" />
      <path
         d="m 497.91341,357.25497 5.50781,-0.83984 c 0.23437,1.06771 0.70963,1.87826 1.42578,2.43164 0.71614,0.55339 1.71874,0.83008 3.00782,0.83008 1.41925,0 2.48696,-0.26042 3.20312,-0.78125 0.48176,-0.36458 0.72264,-0.85286 0.72266,-1.46485 -2e-5,-0.41666 -0.13023,-0.76171 -0.39063,-1.03515 -0.27345,-0.26041 -0.88543,-0.5013 -1.83594,-0.72266 -4.42709,-0.97655 -7.23307,-1.86848 -8.41796,-2.67578 -1.64063,-1.11978 -2.46094,-2.67577 -2.46094,-4.66797 0,-1.79686 0.70963,-3.30727 2.1289,-4.53125 1.41927,-1.22394 3.61979,-1.83592 6.60157,-1.83594 2.83853,2e-5 4.9479,0.46226 6.32812,1.38672 1.38019,0.9245 2.33071,2.29168 2.85156,4.10156 l -5.17578,0.95703 c -0.22136,-0.80727 -0.64129,-1.42576 -1.25976,-1.85546 -0.6185,-0.42968 -1.50066,-0.64452 -2.64649,-0.64454 -1.44532,2e-5 -2.48047,0.20184 -3.10547,0.60547 -0.41667,0.28648 -0.625,0.65757 -0.625,1.11328 0,0.39064 0.18229,0.72268 0.54688,0.9961 0.49478,0.3646 2.20377,0.87892 5.12695,1.54297 2.92316,0.66407 4.96418,1.47787 6.12305,2.4414 1.14581,0.97657 1.71873,2.33725 1.71875,4.08203 -2e-5,1.90105 -0.79429,3.53516 -2.38281,4.90235 -1.58856,1.36719 -3.93882,2.05078 -7.05078,2.05078 -2.82553,0 -5.06186,-0.57292 -6.70899,-1.71875 -1.64714,-1.14583 -2.72461,-2.70182 -3.23242,-4.66797 z"
         style="font-variant:normal;font-weight:bold;font-stretch:normal;font-family:Arial;-inkscape-font-specification:Arial Bold;fill:#1370e5;fill-opacity:1"
         id="path3051"
         inkscape:connector-curvature="0" />
    </g>
  </g>
</svg>
